<?xml version="1.0" ?>
<!DOCTYPE svg  PUBLIC '-//W3C//DTD SVG 1.1//EN'  'http://www.w3.org/Graphics/SVG/1.1/DTD/svg11.dtd'>
<!-- Uploaded to: SVG Repo, www.svgrepo.com, Generator: SVG Repo Mixer Tools -->
<svg fill="#000000" width="800px" height="800px" viewBox="0 0 512 512" version="1.1" xml:space="preserve" xmlns="http://www.w3.org/2000/svg" xmlns:xlink="http://www.w3.org/1999/xlink">
<g id="_x34_66_x2C__Business_x2C__chart_x2C__data_x2C__graph_x2C__stats">
<g>
<path d="M51.826,352.655h97.557c103.6,0,207.187,0,310.791,0v-28.437H93.866h-0.225    H51.826V352.655z M211.961,87.225l15.41,12.252l-8.577,14.862l-19.537-7.673l-4.303,4.287l7.689,19.537l-14.863,8.576    l-13.091-16.41l-5.836,1.58l-3.127,20.763h-17.183l-3.127-20.763l-5.836-1.58l-13.087,16.41l-14.863-8.576l7.672-19.537    l-4.289-4.287l-19.52,7.673l-8.591-14.862l15.41-12.252H78.358v227.774h11.43V182.783c0-2.159,1.79-3.965,3.966-3.965    c2.176,0,3.966,1.806,3.966,3.965v132.216h335.923V87.225H211.961z M111.744,87.225l0.677,2.031l-15.266,12.187l1.772,3.063    l18.056-7.094l11.588,11.607l-7.093,18.054l3.078,1.772l12.059-15.151l15.863,4.223l2.885,19.15h3.544l2.889-19.15l15.859-4.223    l12.059,15.151l3.064-1.772l-7.079-18.054l11.592-11.607l18.053,7.094l1.776-3.063l-15.267-12.187l0.678-2.031H111.744z     M312.098,208.285h-7.802v18.087h7.802V208.285z M327.83,179.463h-7.801v24.761v0.129v22.02h7.801V179.463z M343.564,226.372    v-40.3l0.014-0.193v-22.084h-7.816V175.4v0.129v50.843H343.564z M359.311,190.038h-7.815v36.334h7.815V190.038z M375.044,173.402    h-7.802v12.573v0.097v40.3h7.802V173.402z M288.563,252.39h7.802v-18.087h-7.802V252.39z M272.813,281.211h7.818v-24.76v-0.097    v-22.052h-7.818V281.211z M257.079,234.303v40.301v0.192v22.117h7.819v-11.64v-0.096v-50.875H257.079z M241.332,270.637h7.816    v-36.334h-7.816V270.637z M225.599,287.305h7.815v-12.605v-0.096v-40.301h-7.815V287.305z M279.613,26.002h-47.23l-4.046,16.926    h55.324L279.613,26.002z M150.98,451.373l16.94-90.787h-15.312l-21.667,90.787H150.98z M198.049,234.303    c-2.176,0-3.952-1.773-3.952-3.965c0-2.193,1.776-3.966,3.952-3.966h23.486h0.098h15.635h0.112h0.098h15.54h0.095l0,0h0.112    h15.526h0.112h0.095h15.525h0.112h0.095h11.673v-22.02c0-2.192,1.772-3.966,3.966-3.966h11.768v-24.857    c0-2.191,1.772-3.965,3.966-3.965h11.767v-11.735c0-2.192,1.791-3.966,3.967-3.966h15.746c2.177,0,3.952,1.773,3.952,3.966v22.31    h7.815v-12.702c0-2.192,1.776-3.966,3.967-3.966h15.732c2.176,0,3.966,1.773,3.966,3.966v56.936h19.618    c2.193,0,3.966,1.772,3.966,3.966c0,2.191-1.772,3.965-3.966,3.965h-23.486h-0.098h-15.635h-0.098h-0.113h-15.522h-0.099h-0.014    h-0.098h-15.523h-0.111h-0.099h-15.54h-0.095h-0.099h-11.669v22.052c0,2.192-1.79,3.966-3.966,3.966h-11.768v24.857    c0,2.191-1.79,3.965-3.966,3.965h-11.784v11.735c0,2.16-1.772,3.966-3.948,3.966h-15.751c-2.19,0-3.965-1.806-3.965-3.966v-22.31    h-7.816v12.702c0,2.16-1.776,3.966-3.952,3.966h-15.747c-2.176,0-3.952-1.806-3.952-3.966v-56.968H198.049z M88.771,474.038    c-2.176,0-3.966-1.773-3.966-3.966s1.79-3.966,3.966-3.966h239.671c2.176,0,3.966,1.773,3.966,3.966s-1.79,3.966-3.966,3.966    H88.771z M229.112,485.999c-2.193,0-3.965-1.806-3.965-3.965c0-2.193,1.772-3.966,3.965-3.966h165.841    c2.193,0,3.966,1.772,3.966,3.966c0,2.159-1.772,3.965-3.966,3.965H229.112z M411.929,485.999c-2.18,0-3.966-1.806-3.966-3.965    c0-2.193,1.786-3.966,3.966-3.966h20.728c2.193,0,3.966,1.772,3.966,3.966c0,2.159-1.772,3.965-3.966,3.965H411.929z     M79.34,485.611c-2.176,0-3.965-1.772-3.965-3.933c0-2.192,1.79-3.965,3.965-3.965h78.585c2.193,0,3.966,1.772,3.966,3.965    c0,2.16-1.772,3.933-3.966,3.933H79.34z M189.458,400.531c-2.193,0-3.966-1.773-3.966-3.965c0-2.16,1.772-3.967,3.966-3.967    h160.616l-5.98-32.014h15.315l21.65,90.787h-20.022l-9.479-50.842H189.458z M51.826,79.294h22.471h363.406h22.471V50.858H51.826    V79.294z" style="fill-rule:evenodd;clip-rule:evenodd;"/>
</g>
</g>
<g id="Layer_1"/>
</svg>