<!DOCTYPE svg PUBLIC "-//W3C//DTD SVG 1.1//EN" "http://www.w3.org/Graphics/SVG/1.1/DTD/svg11.dtd">
<!-- Uploaded to: SVG Repo, www.svgrepo.com, Transformed by: SVG Repo Mixer Tools -->
<svg fill="#1E88E5" height="800px" width="800px" version="1.1" id="Layer_1" xmlns="http://www.w3.org/2000/svg" xmlns:xlink="http://www.w3.org/1999/xlink" viewBox="0 0 512.001 512.001" xml:space="preserve" stroke="#1E88E5">
<g id="SVGRepo_bgCarrier" stroke-width="0"/>
<g id="SVGRepo_tracerCarrier" stroke-linecap="round" stroke-linejoin="round"/>
<g id="SVGRepo_iconCarrier"> <g> <g> <path d="M505.855,250.244c-1.144-1.072-28.532-26.542-73.039-52.327c-41.2-23.868-105.319-52.321-176.816-52.321 c-71.495,0-135.615,28.452-176.815,52.321c-44.507,25.784-71.895,51.255-73.039,52.327L0,256l6.145,5.756 c1.144,1.072,28.532,26.541,73.04,52.327c41.2,23.868,105.319,52.322,176.815,52.322s135.616-28.452,176.816-52.322 c44.507-25.784,71.895-51.255,73.039-52.327l6.145-5.756L505.855,250.244z M87.446,300.639 c-30.744-17.773-53.403-35.734-63.945-44.642c10.483-8.865,32.965-26.69,63.59-44.432c25.409-14.721,59.861-31.247,99.286-41.182 c-24.868,20.26-40.782,51.113-40.782,85.616s15.912,65.355,40.78,85.615C147.098,331.716,112.772,315.281,87.446,300.639z M255.999,350.63c-52.179,0-94.629-42.451-94.629-94.63s42.451-94.63,94.629-94.63c52.18,0,94.63,42.451,94.63,94.63 C350.63,308.18,308.179,350.63,255.999,350.63z M424.907,300.434c-25.41,14.721-59.862,31.247-99.286,41.182 c24.868-20.26,40.782-51.113,40.782-85.617c0-34.503-15.913-65.355-40.781-85.615c39.279,9.899,73.605,26.334,98.931,40.976 c30.744,17.774,53.402,35.733,63.945,44.642C478.015,264.867,455.532,282.692,424.907,300.434z"/> </g> </g> <g> <g> <path d="M255.999,185.026c-39.135,0-70.973,31.839-70.973,70.974s31.838,70.974,70.973,70.974 c39.136,0,70.974-31.839,70.974-70.974S295.135,185.026,255.999,185.026z M255.999,311.201c-30.436,0-55.2-24.763-55.2-55.201 s24.763-55.201,55.2-55.201c30.438,0,55.201,24.763,55.201,55.201C311.2,286.438,286.438,311.201,255.999,311.201z"/> </g> </g> <g> <g> <path d="M275.276,264.124c2.78-4.697,4.382-10.17,4.382-16.011c0-17.394-14.151-31.545-31.545-31.545 s-31.545,14.151-31.545,31.545s14.151,31.545,31.545,31.545c5.841,0,11.314-1.602,16.01-4.381l17.842,17.843l11.154-11.153 L275.276,264.124z M248.113,263.885c-8.696,0-15.771-7.075-15.771-15.771s7.076-15.771,15.771-15.771 c8.695,0,15.771,7.075,15.771,15.771S256.81,263.885,248.113,263.885z"/> </g> </g> </g>
</svg>